# xmcd CD database file
#
# Track frame offsets:
#	150
#	54450
#	117682
#	170000
#	210575
#	256575
#
# Disc length: 3987 seconds
#
# Revision: 0
# Processed by: cddbd v1.5.1PL0 Copyright (c) Steve Scherf et al.
# Submitted via: CDex 1.51
#
DISCID=510f9106
DTITLE=Carl Fontana Andy martin Quintet - Live At Capozzoli's
DYEAR=1998
DGENRE=Jazz
TTITLE0=I Thought About You
TTITLE1=Centerpiece
TTITLE2=On Green Dolphin Street
TTITLE3=Only Trust Your Heart
TTITLE4=Caravan
TTITLE5=I'll Be Seeing You
EXTD=YEAR: 1998
EXTT0=
EXTT1=
EXTT2=
EXTT3=
EXTT4=
EXTT5=
PLAYORDER=
